<svg xmlns="http://www.w3.org/2000/svg" xmlns:xlink="http://www.w3.org/1999/xlink" viewBox="0 0 40 40" version="1.1">
<g id="surface1">
<path style="fill:none;stroke-width:1;stroke-linecap:butt;stroke-linejoin:miter;stroke:#4788C7;stroke-opacity:1;stroke-miterlimit:10;" d="M 19.5 13.5 L 19.5 4.5 "></path>
<path style=" fill:#DFF0FE;" d="M 22.5 4.5 C 22.5 6.15625 21.15625 7.5 19.5 7.5 C 17.84375 7.5 16.5 6.15625 16.5 4.5 C 16.5 2.84375 17.84375 1.5 19.5 1.5 C 21.15625 1.5 22.5 2.84375 22.5 4.5 Z "></path>
<path style=" fill:#4788C7;" d="M 19.5 2 C 20.878906 2 22 3.121094 22 4.5 C 22 5.878906 20.878906 7 19.5 7 C 18.121094 7 17 5.878906 17 4.5 C 17 3.121094 18.121094 2 19.5 2 M 19.5 1 C 17.566406 1 16 2.566406 16 4.5 C 16 6.433594 17.566406 8 19.5 8 C 21.433594 8 23 6.433594 23 4.5 C 23 2.566406 21.433594 1 19.5 1 Z "></path>
<path style=" fill:#DFF0FE;" d="M 19 38.5 C 14.695313 38.5 4.5 37.140625 4.5 35 L 4.5 26.859375 C 4.5 19.078125 11.140625 12.5 19 12.5 L 20 12.5 C 27.859375 12.5 34.5 19.078125 34.5 26.859375 L 34.5 35 C 34.5 37.140625 24.304688 38.5 20 38.5 Z "></path>
<path style=" fill:#4788C7;" d="M 20 13 C 27.589844 13 34 19.347656 34 26.859375 L 34 35 C 34 35.011719 33.761719 36.136719 28.429688 37.128906 C 25.203125 37.730469 21.558594 38 20 38 L 19 38 C 17.441406 38 13.796875 37.730469 10.570313 37.128906 C 5.238281 36.136719 5 35.011719 5 35 L 5 26.859375 C 5 19.347656 11.410156 13 19 13 L 20 13 M 20 12 L 19 12 C 10.847656 12 4 18.707031 4 26.859375 L 4 35 C 4 37.964844 16.035156 39 19 39 L 20 39 C 22.964844 39 35 37.964844 35 35 L 35 26.859375 C 35 18.707031 28.152344 12 20 12 Z "></path>
<path style=" fill:#FFFFFF;" d="M 12.5 30.5 C 10.292969 30.5 8.5 28.707031 8.5 26.5 C 8.5 24.292969 10.292969 22.5 12.5 22.5 L 26.5 22.5 C 28.707031 22.5 30.5 24.292969 30.5 26.5 C 30.5 28.707031 28.707031 30.5 26.5 30.5 Z "></path>
<path style=" fill:#4788C7;" d="M 26.5 23 C 28.429688 23 30 24.570313 30 26.5 C 30 28.429688 28.429688 30 26.5 30 L 12.5 30 C 10.570313 30 9 28.429688 9 26.5 C 9 24.570313 10.570313 23 12.5 23 L 26.5 23 M 26.5 22 L 12.5 22 C 10.023438 22 8 24.023438 8 26.5 C 8 28.976563 10.023438 31 12.5 31 L 26.5 31 C 28.976563 31 31 28.976563 31 26.5 C 31 24.023438 28.976563 22 26.5 22 Z "></path>
<path style=" fill:#98CCFD;" d="M 13.5 26.5 C 13.5 27.050781 13.050781 27.5 12.5 27.5 C 11.949219 27.5 11.5 27.050781 11.5 26.5 C 11.5 25.949219 11.949219 25.5 12.5 25.5 C 13.050781 25.5 13.5 25.949219 13.5 26.5 Z "></path>
<path style=" fill:#4788C7;" d="M 12.5 26 C 12.777344 26 13 26.222656 13 26.5 C 13 26.777344 12.777344 27 12.5 27 C 12.222656 27 12 26.777344 12 26.5 C 12 26.222656 12.222656 26 12.5 26 M 12.5 25 C 11.671875 25 11 25.671875 11 26.5 C 11 27.328125 11.671875 28 12.5 28 C 13.328125 28 14 27.328125 14 26.5 C 14 25.671875 13.328125 25 12.5 25 Z "></path>
<path style=" fill:#98CCFD;" d="M 27.5 26.5 C 27.5 27.050781 27.050781 27.5 26.5 27.5 C 25.949219 27.5 25.5 27.050781 25.5 26.5 C 25.5 25.949219 25.949219 25.5 26.5 25.5 C 27.050781 25.5 27.5 25.949219 27.5 26.5 Z "></path>
<path style=" fill:#4788C7;" d="M 26.5 26 C 26.777344 26 27 26.222656 27 26.5 C 27 26.777344 26.777344 27 26.5 27 C 26.222656 27 26 26.777344 26 26.5 C 26 26.222656 26.222656 26 26.5 26 M 26.5 25 C 25.671875 25 25 25.671875 25 26.5 C 25 27.328125 25.671875 28 26.5 28 C 27.328125 28 28 27.328125 28 26.5 C 28 25.671875 27.328125 25 26.5 25 Z "></path>
<path style=" fill:#DFF0FE;" d="M 36 32.5 C 35.171875 32.5 34.5 31.828125 34.5 31 L 34.5 19 C 34.5 18.171875 35.171875 17.5 36 17.5 C 36.828125 17.5 37.5 18.171875 37.5 19 L 37.5 31 C 37.5 31.828125 36.828125 32.5 36 32.5 Z "></path>
<path style=" fill:#4788C7;" d="M 36 18 C 36.550781 18 37 18.449219 37 19 L 37 31 C 37 31.550781 36.550781 32 36 32 C 35.449219 32 35 31.550781 35 31 L 35 19 C 35 18.449219 35.449219 18 36 18 M 36 17 C 34.894531 17 34 17.894531 34 19 L 34 31 C 34 32.105469 34.894531 33 36 33 C 37.105469 33 38 32.105469 38 31 L 38 19 C 38 17.894531 37.105469 17 36 17 Z "></path>
<path style=" fill:#DFF0FE;" d="M 3 32.5 C 2.171875 32.5 1.5 31.828125 1.5 31 L 1.5 19 C 1.5 18.171875 2.171875 17.5 3 17.5 C 3.828125 17.5 4.5 18.171875 4.5 19 L 4.5 31 C 4.5 31.828125 3.828125 32.5 3 32.5 Z "></path>
<path style=" fill:#4788C7;" d="M 3 18 C 3.550781 18 4 18.449219 4 19 L 4 31 C 4 31.550781 3.550781 32 3 32 C 2.449219 32 2 31.550781 2 31 L 2 19 C 2 18.449219 2.449219 18 3 18 M 3 17 C 1.898438 17 1 17.898438 1 19 L 1 31 C 1 32.101563 1.898438 33 3 33 C 4.101563 33 5 32.101563 5 31 L 5 19 C 5 17.898438 4.101563 17 3 17 Z "></path>
</g>
</svg>