<svg xmlns="http://www.w3.org/2000/svg" viewBox="0 0 24 24">
    <path d="M 6 3 C 4.3549904 3 3 4.3549904 3 6 C 3 7.2931586 3.84267 8.3951413 5 8.8125 L 5 13 L 7 13 L 7 8.8125 C 8.15733 8.3951413 9 7.2931586 9 6 C 9 4.3549904 7.6450096 3 6 3 z M 18 3 A 3 3 0 0 0 15.175781 5 L 11 5 L 11 7 L 15.173828 7 A 3 3 0 0 0 18 9 A 3 3 0 0 0 21 6 A 3 3 0 0 0 18 3 z M 6 5 C 6.5641294 5 7 5.4358706 7 6 C 7 6.5641294 6.5641294 7 6 7 C 5.4358706 7 5 6.5641294 5 6 C 5 5.4358706 5.4358706 5 6 5 z M 17 11 L 17 15 L 14.707031 17.292969 C 14.317031 17.682969 14.317031 18.317031 14.707031 18.707031 L 17.292969 21.292969 C 17.682969 21.683969 18.316031 21.683969 18.707031 21.292969 L 21.292969 18.707031 C 21.683969 18.317031 21.683969 17.683969 21.292969 17.292969 L 19 15 L 19 11 L 17 11 z M 4 15 C 3.448 15 3 15.448 3 16 L 3 20 C 3 20.552 3.448 21 4 21 L 8 21 C 8.552 21 9 20.552 9 20 L 9 16 C 9 15.448 8.552 15 8 15 L 4 15 z"></path>
</svg>